<mxfile host="app.diagrams.net" modified="2023-02-04T11:26:17.046Z" agent="5.0 (Windows NT 10.0; Win64; x64) AppleWebKit/537.36 (KHTML, like Gecko) Chrome/109.0.0.0 Safari/537.36 Edg/109.0.1518.78" etag="eWDx9vPPddOSamFVBmVo" version="20.8.16" type="github">
  <diagram name="第 1 页" id="bVb-thQ0YmSEIPxT-DDQ">
    <mxGraphModel dx="1096" dy="878" grid="1" gridSize="10" guides="1" tooltips="1" connect="1" arrows="1" fold="1" page="1" pageScale="1" pageWidth="827" pageHeight="1169" math="1" shadow="0">
      <root>
        <mxCell id="0" />
        <mxCell id="1" parent="0" />
        <mxCell id="6ML0jNFKMh7dgCEZMotU-1" value="" style="rounded=0;whiteSpace=wrap;html=1;dashed=1;" parent="1" vertex="1">
          <mxGeometry x="250" y="164.75" width="430" height="232.5" as="geometry" />
        </mxCell>
        <mxCell id="6ML0jNFKMh7dgCEZMotU-2" value="" style="rounded=0;whiteSpace=wrap;html=1;" parent="1" vertex="1">
          <mxGeometry x="175" y="185" width="60" height="20" as="geometry" />
        </mxCell>
        <mxCell id="6ML0jNFKMh7dgCEZMotU-3" value="$$c_{t-1}$$" style="text;html=1;align=center;verticalAlign=middle;resizable=0;points=[];autosize=1;strokeColor=none;fillColor=none;" parent="1" vertex="1">
          <mxGeometry x="165" y="180" width="80" height="30" as="geometry" />
        </mxCell>
        <mxCell id="6ML0jNFKMh7dgCEZMotU-24" value="" style="edgeStyle=orthogonalEdgeStyle;rounded=0;orthogonalLoop=1;jettySize=auto;html=1;" parent="1" source="6ML0jNFKMh7dgCEZMotU-6" target="6ML0jNFKMh7dgCEZMotU-17" edge="1">
          <mxGeometry relative="1" as="geometry" />
        </mxCell>
        <mxCell id="6ML0jNFKMh7dgCEZMotU-6" value="" style="rounded=0;whiteSpace=wrap;html=1;" parent="1" vertex="1">
          <mxGeometry x="175" y="358" width="60" height="20" as="geometry" />
        </mxCell>
        <mxCell id="6ML0jNFKMh7dgCEZMotU-7" value="$$h_{t-1}$$" style="text;html=1;align=center;verticalAlign=middle;resizable=0;points=[];autosize=1;strokeColor=none;fillColor=none;" parent="1" vertex="1">
          <mxGeometry x="160" y="353" width="90" height="30" as="geometry" />
        </mxCell>
        <mxCell id="6ML0jNFKMh7dgCEZMotU-12" value="$$x_{t}$$" style="rounded=0;whiteSpace=wrap;html=1;" parent="1" vertex="1">
          <mxGeometry x="250" y="403" width="60" height="20" as="geometry" />
        </mxCell>
        <mxCell id="6ML0jNFKMh7dgCEZMotU-47" value="" style="edgeStyle=orthogonalEdgeStyle;rounded=0;orthogonalLoop=1;jettySize=auto;html=1;" parent="1" source="6ML0jNFKMh7dgCEZMotU-13" target="6ML0jNFKMh7dgCEZMotU-14" edge="1">
          <mxGeometry relative="1" as="geometry" />
        </mxCell>
        <mxCell id="6ML0jNFKMh7dgCEZMotU-13" value="" style="ellipse;whiteSpace=wrap;html=1;aspect=fixed;" parent="1" vertex="1">
          <mxGeometry x="300" y="185" width="20" height="20" as="geometry" />
        </mxCell>
        <mxCell id="6ML0jNFKMh7dgCEZMotU-42" style="edgeStyle=orthogonalEdgeStyle;rounded=0;orthogonalLoop=1;jettySize=auto;html=1;" parent="1" source="6ML0jNFKMh7dgCEZMotU-14" target="6ML0jNFKMh7dgCEZMotU-16" edge="1">
          <mxGeometry relative="1" as="geometry" />
        </mxCell>
        <mxCell id="6ML0jNFKMh7dgCEZMotU-14" value="+" style="ellipse;whiteSpace=wrap;html=1;aspect=fixed;" parent="1" vertex="1">
          <mxGeometry x="420" y="185" width="20" height="20" as="geometry" />
        </mxCell>
        <mxCell id="6ML0jNFKMh7dgCEZMotU-15" value="" style="shape=waypoint;sketch=0;size=6;pointerEvents=1;points=[];fillColor=none;resizable=0;rotatable=0;perimeter=centerPerimeter;snapToPoint=1;" parent="1" vertex="1">
          <mxGeometry x="300" y="185" width="20" height="20" as="geometry" />
        </mxCell>
        <mxCell id="6ML0jNFKMh7dgCEZMotU-71" value="" style="edgeStyle=orthogonalEdgeStyle;rounded=0;orthogonalLoop=1;jettySize=auto;html=1;" parent="1" source="6ML0jNFKMh7dgCEZMotU-16" target="6ML0jNFKMh7dgCEZMotU-70" edge="1">
          <mxGeometry relative="1" as="geometry" />
        </mxCell>
        <mxCell id="6ML0jNFKMh7dgCEZMotU-96" style="edgeStyle=orthogonalEdgeStyle;rounded=0;orthogonalLoop=1;jettySize=auto;html=1;exitX=1;exitY=0.5;exitDx=0;exitDy=0;fontSize=11;" parent="1" source="6ML0jNFKMh7dgCEZMotU-16" edge="1">
          <mxGeometry relative="1" as="geometry">
            <mxPoint x="710" y="195" as="targetPoint" />
          </mxGeometry>
        </mxCell>
        <mxCell id="6ML0jNFKMh7dgCEZMotU-16" value="$$c_t$$" style="rounded=0;whiteSpace=wrap;html=1;" parent="1" vertex="1">
          <mxGeometry x="600" y="185" width="60" height="20" as="geometry" />
        </mxCell>
        <mxCell id="6ML0jNFKMh7dgCEZMotU-17" value="" style="ellipse;whiteSpace=wrap;html=1;aspect=fixed;" parent="1" vertex="1">
          <mxGeometry x="270" y="358" width="20" height="20" as="geometry" />
        </mxCell>
        <mxCell id="6ML0jNFKMh7dgCEZMotU-18" value="" style="endArrow=none;html=1;rounded=0;exitX=0.5;exitY=1;exitDx=0;exitDy=0;entryX=0.5;entryY=0;entryDx=0;entryDy=0;" parent="1" source="6ML0jNFKMh7dgCEZMotU-17" target="6ML0jNFKMh7dgCEZMotU-17" edge="1">
          <mxGeometry width="50" height="50" relative="1" as="geometry">
            <mxPoint x="220" y="443" as="sourcePoint" />
            <mxPoint x="270" y="393" as="targetPoint" />
          </mxGeometry>
        </mxCell>
        <mxCell id="6ML0jNFKMh7dgCEZMotU-19" value="" style="endArrow=none;html=1;rounded=0;exitX=0;exitY=0.5;exitDx=0;exitDy=0;entryX=1;entryY=0.5;entryDx=0;entryDy=0;" parent="1" source="6ML0jNFKMh7dgCEZMotU-17" target="6ML0jNFKMh7dgCEZMotU-17" edge="1">
          <mxGeometry width="50" height="50" relative="1" as="geometry">
            <mxPoint x="220" y="443" as="sourcePoint" />
            <mxPoint x="270" y="393" as="targetPoint" />
          </mxGeometry>
        </mxCell>
        <mxCell id="6ML0jNFKMh7dgCEZMotU-20" value="" style="endArrow=classic;html=1;rounded=0;exitX=0.5;exitY=0;exitDx=0;exitDy=0;" parent="1" source="6ML0jNFKMh7dgCEZMotU-12" edge="1">
          <mxGeometry width="50" height="50" relative="1" as="geometry">
            <mxPoint x="230" y="443" as="sourcePoint" />
            <mxPoint x="280" y="373" as="targetPoint" />
          </mxGeometry>
        </mxCell>
        <mxCell id="6ML0jNFKMh7dgCEZMotU-28" value="" style="endArrow=classic;html=1;rounded=0;exitX=1;exitY=0.5;exitDx=0;exitDy=0;" parent="1" source="6ML0jNFKMh7dgCEZMotU-2" edge="1">
          <mxGeometry width="50" height="50" relative="1" as="geometry">
            <mxPoint x="290" y="430" as="sourcePoint" />
            <mxPoint x="300" y="195" as="targetPoint" />
          </mxGeometry>
        </mxCell>
        <mxCell id="6ML0jNFKMh7dgCEZMotU-55" value="" style="edgeStyle=orthogonalEdgeStyle;rounded=0;orthogonalLoop=1;jettySize=auto;html=1;" parent="1" source="6ML0jNFKMh7dgCEZMotU-50" target="6ML0jNFKMh7dgCEZMotU-13" edge="1">
          <mxGeometry relative="1" as="geometry" />
        </mxCell>
        <mxCell id="6ML0jNFKMh7dgCEZMotU-50" value="" style="rounded=0;whiteSpace=wrap;html=1;" parent="1" vertex="1">
          <mxGeometry x="280" y="275" width="60" height="20" as="geometry" />
        </mxCell>
        <mxCell id="6ML0jNFKMh7dgCEZMotU-51" value="$$f_{t}$$" style="text;html=1;align=center;verticalAlign=middle;resizable=0;points=[];autosize=1;strokeColor=none;fillColor=none;" parent="1" vertex="1">
          <mxGeometry x="275" y="270" width="70" height="30" as="geometry" />
        </mxCell>
        <mxCell id="6ML0jNFKMh7dgCEZMotU-56" value="$$i_t$$" style="rounded=0;whiteSpace=wrap;html=1;" parent="1" vertex="1">
          <mxGeometry x="360" y="275" width="60" height="20" as="geometry" />
        </mxCell>
        <mxCell id="6ML0jNFKMh7dgCEZMotU-57" value="$$\tilde{\boldsymbol{c}}_t$$" style="rounded=0;whiteSpace=wrap;html=1;" parent="1" vertex="1">
          <mxGeometry x="440" y="275" width="60" height="20" as="geometry" />
        </mxCell>
        <mxCell id="6ML0jNFKMh7dgCEZMotU-69" value="" style="edgeStyle=orthogonalEdgeStyle;rounded=0;orthogonalLoop=1;jettySize=auto;html=1;" parent="1" source="6ML0jNFKMh7dgCEZMotU-58" target="6ML0jNFKMh7dgCEZMotU-67" edge="1">
          <mxGeometry relative="1" as="geometry" />
        </mxCell>
        <mxCell id="6ML0jNFKMh7dgCEZMotU-58" value="$$o_t$$" style="rounded=0;whiteSpace=wrap;html=1;" parent="1" vertex="1">
          <mxGeometry x="520" y="275" width="60" height="20" as="geometry" />
        </mxCell>
        <mxCell id="6ML0jNFKMh7dgCEZMotU-62" value="" style="edgeStyle=orthogonalEdgeStyle;rounded=0;orthogonalLoop=1;jettySize=auto;html=1;" parent="1" source="6ML0jNFKMh7dgCEZMotU-61" target="6ML0jNFKMh7dgCEZMotU-14" edge="1">
          <mxGeometry relative="1" as="geometry" />
        </mxCell>
        <mxCell id="6ML0jNFKMh7dgCEZMotU-61" value="" style="ellipse;whiteSpace=wrap;html=1;aspect=fixed;" parent="1" vertex="1">
          <mxGeometry x="420" y="230" width="20" height="20" as="geometry" />
        </mxCell>
        <mxCell id="6ML0jNFKMh7dgCEZMotU-64" value="" style="endArrow=classic;html=1;rounded=0;exitX=0.5;exitY=0;exitDx=0;exitDy=0;entryX=0;entryY=1;entryDx=0;entryDy=0;" parent="1" source="6ML0jNFKMh7dgCEZMotU-56" target="6ML0jNFKMh7dgCEZMotU-61" edge="1">
          <mxGeometry width="50" height="50" relative="1" as="geometry">
            <mxPoint x="290" y="400" as="sourcePoint" />
            <mxPoint x="340" y="350" as="targetPoint" />
          </mxGeometry>
        </mxCell>
        <mxCell id="6ML0jNFKMh7dgCEZMotU-65" value="" style="endArrow=classic;html=1;rounded=0;exitX=0.5;exitY=0;exitDx=0;exitDy=0;entryX=1;entryY=1;entryDx=0;entryDy=0;" parent="1" source="6ML0jNFKMh7dgCEZMotU-57" target="6ML0jNFKMh7dgCEZMotU-61" edge="1">
          <mxGeometry width="50" height="50" relative="1" as="geometry">
            <mxPoint x="290" y="400" as="sourcePoint" />
            <mxPoint x="340" y="350" as="targetPoint" />
          </mxGeometry>
        </mxCell>
        <mxCell id="6ML0jNFKMh7dgCEZMotU-74" value="" style="edgeStyle=orthogonalEdgeStyle;rounded=0;orthogonalLoop=1;jettySize=auto;html=1;" parent="1" source="6ML0jNFKMh7dgCEZMotU-67" target="6ML0jNFKMh7dgCEZMotU-73" edge="1">
          <mxGeometry relative="1" as="geometry" />
        </mxCell>
        <mxCell id="6ML0jNFKMh7dgCEZMotU-67" value="" style="ellipse;whiteSpace=wrap;html=1;aspect=fixed;" parent="1" vertex="1">
          <mxGeometry x="620" y="275" width="20" height="20" as="geometry" />
        </mxCell>
        <mxCell id="6ML0jNFKMh7dgCEZMotU-72" value="" style="edgeStyle=orthogonalEdgeStyle;rounded=0;orthogonalLoop=1;jettySize=auto;html=1;" parent="1" source="6ML0jNFKMh7dgCEZMotU-70" target="6ML0jNFKMh7dgCEZMotU-67" edge="1">
          <mxGeometry relative="1" as="geometry" />
        </mxCell>
        <mxCell id="6ML0jNFKMh7dgCEZMotU-70" value="&lt;font style=&quot;font-size: 11px;&quot;&gt;$$tanh$$&lt;/font&gt;" style="ellipse;whiteSpace=wrap;html=1;aspect=fixed;" parent="1" vertex="1">
          <mxGeometry x="615" y="225" width="30" height="30" as="geometry" />
        </mxCell>
        <mxCell id="6ML0jNFKMh7dgCEZMotU-97" style="edgeStyle=orthogonalEdgeStyle;rounded=0;orthogonalLoop=1;jettySize=auto;html=1;exitX=1;exitY=0.5;exitDx=0;exitDy=0;fontSize=11;" parent="1" source="6ML0jNFKMh7dgCEZMotU-73" edge="1">
          <mxGeometry relative="1" as="geometry">
            <mxPoint x="710" y="368.0769230769231" as="targetPoint" />
          </mxGeometry>
        </mxCell>
        <mxCell id="6ML0jNFKMh7dgCEZMotU-73" value="$$h_t$$" style="rounded=0;whiteSpace=wrap;html=1;" parent="1" vertex="1">
          <mxGeometry x="600" y="358" width="60" height="20" as="geometry" />
        </mxCell>
        <mxCell id="6ML0jNFKMh7dgCEZMotU-91" style="edgeStyle=orthogonalEdgeStyle;rounded=0;orthogonalLoop=1;jettySize=auto;html=1;exitX=0.5;exitY=0;exitDx=0;exitDy=0;entryX=0.5;entryY=1;entryDx=0;entryDy=0;fontSize=11;" parent="1" source="6ML0jNFKMh7dgCEZMotU-76" target="6ML0jNFKMh7dgCEZMotU-50" edge="1">
          <mxGeometry relative="1" as="geometry" />
        </mxCell>
        <mxCell id="6ML0jNFKMh7dgCEZMotU-76" value="$$&#xa;\sigma&#xa;$$" style="ellipse;whiteSpace=wrap;html=1;aspect=fixed;" parent="1" vertex="1">
          <mxGeometry x="300" y="315" width="20" height="20" as="geometry" />
        </mxCell>
        <mxCell id="6ML0jNFKMh7dgCEZMotU-90" style="edgeStyle=orthogonalEdgeStyle;rounded=0;orthogonalLoop=1;jettySize=auto;html=1;exitX=0.5;exitY=0;exitDx=0;exitDy=0;entryX=0.5;entryY=1;entryDx=0;entryDy=0;fontSize=11;" parent="1" source="6ML0jNFKMh7dgCEZMotU-78" target="6ML0jNFKMh7dgCEZMotU-56" edge="1">
          <mxGeometry relative="1" as="geometry" />
        </mxCell>
        <mxCell id="6ML0jNFKMh7dgCEZMotU-78" value="$$&lt;br style=&quot;border-color: var(--border-color);&quot;&gt;\sigma&lt;br style=&quot;border-color: var(--border-color);&quot;&gt;$$" style="ellipse;whiteSpace=wrap;html=1;aspect=fixed;" parent="1" vertex="1">
          <mxGeometry x="380" y="315" width="20" height="20" as="geometry" />
        </mxCell>
        <mxCell id="6ML0jNFKMh7dgCEZMotU-88" style="edgeStyle=orthogonalEdgeStyle;rounded=0;orthogonalLoop=1;jettySize=auto;html=1;exitX=0.5;exitY=0;exitDx=0;exitDy=0;entryX=0.5;entryY=1;entryDx=0;entryDy=0;fontSize=11;" parent="1" source="6ML0jNFKMh7dgCEZMotU-79" target="6ML0jNFKMh7dgCEZMotU-57" edge="1">
          <mxGeometry relative="1" as="geometry" />
        </mxCell>
        <mxCell id="6ML0jNFKMh7dgCEZMotU-79" value="$$tanh$$" style="ellipse;whiteSpace=wrap;html=1;aspect=fixed;" parent="1" vertex="1">
          <mxGeometry x="454.5" y="315" width="30" height="30" as="geometry" />
        </mxCell>
        <mxCell id="6ML0jNFKMh7dgCEZMotU-89" style="edgeStyle=orthogonalEdgeStyle;rounded=0;orthogonalLoop=1;jettySize=auto;html=1;exitX=0.5;exitY=0;exitDx=0;exitDy=0;entryX=0.5;entryY=1;entryDx=0;entryDy=0;fontSize=11;" parent="1" source="6ML0jNFKMh7dgCEZMotU-80" target="6ML0jNFKMh7dgCEZMotU-58" edge="1">
          <mxGeometry relative="1" as="geometry" />
        </mxCell>
        <mxCell id="6ML0jNFKMh7dgCEZMotU-80" value="$$&lt;br style=&quot;border-color: var(--border-color);&quot;&gt;\sigma&lt;br style=&quot;border-color: var(--border-color);&quot;&gt;$$" style="ellipse;whiteSpace=wrap;html=1;aspect=fixed;" parent="1" vertex="1">
          <mxGeometry x="540" y="315" width="20" height="20" as="geometry" />
        </mxCell>
        <mxCell id="6ML0jNFKMh7dgCEZMotU-81" value="" style="endArrow=classic;html=1;rounded=0;entryX=0.5;entryY=1;entryDx=0;entryDy=0;exitX=1;exitY=0.5;exitDx=0;exitDy=0;" parent="1" source="6ML0jNFKMh7dgCEZMotU-17" target="6ML0jNFKMh7dgCEZMotU-76" edge="1">
          <mxGeometry width="50" height="50" relative="1" as="geometry">
            <mxPoint x="294" y="370" as="sourcePoint" />
            <mxPoint x="314" y="335" as="targetPoint" />
            <Array as="points">
              <mxPoint x="310" y="368" />
            </Array>
          </mxGeometry>
        </mxCell>
        <mxCell id="6ML0jNFKMh7dgCEZMotU-82" value="" style="endArrow=classic;html=1;rounded=0;exitX=1;exitY=0.5;exitDx=0;exitDy=0;entryX=0.5;entryY=1;entryDx=0;entryDy=0;" parent="1" source="6ML0jNFKMh7dgCEZMotU-17" target="6ML0jNFKMh7dgCEZMotU-78" edge="1">
          <mxGeometry width="50" height="50" relative="1" as="geometry">
            <mxPoint x="300" y="383" as="sourcePoint" />
            <mxPoint x="420" y="370" as="targetPoint" />
            <Array as="points">
              <mxPoint x="310" y="370" />
              <mxPoint x="390" y="370" />
            </Array>
          </mxGeometry>
        </mxCell>
        <mxCell id="6ML0jNFKMh7dgCEZMotU-84" value="" style="endArrow=classic;html=1;rounded=0;exitX=1;exitY=0.5;exitDx=0;exitDy=0;entryX=0.5;entryY=1;entryDx=0;entryDy=0;" parent="1" source="6ML0jNFKMh7dgCEZMotU-17" target="6ML0jNFKMh7dgCEZMotU-79" edge="1">
          <mxGeometry width="50" height="50" relative="1" as="geometry">
            <mxPoint x="300" y="390" as="sourcePoint" />
            <mxPoint x="510" y="380" as="targetPoint" />
            <Array as="points">
              <mxPoint x="320" y="380" />
              <mxPoint x="470" y="380" />
            </Array>
          </mxGeometry>
        </mxCell>
        <mxCell id="6ML0jNFKMh7dgCEZMotU-85" value="" style="endArrow=classic;html=1;rounded=0;exitX=1;exitY=0.5;exitDx=0;exitDy=0;entryX=0.5;entryY=1;entryDx=0;entryDy=0;" parent="1" source="6ML0jNFKMh7dgCEZMotU-17" target="6ML0jNFKMh7dgCEZMotU-80" edge="1">
          <mxGeometry width="50" height="50" relative="1" as="geometry">
            <mxPoint x="290" y="380" as="sourcePoint" />
            <mxPoint x="560" y="390" as="targetPoint" />
            <Array as="points">
              <mxPoint x="320" y="390" />
              <mxPoint x="550" y="390" />
            </Array>
          </mxGeometry>
        </mxCell>
        <mxCell id="6ML0jNFKMh7dgCEZMotU-93" value="" style="shape=waypoint;sketch=0;size=6;pointerEvents=1;points=[];fillColor=none;resizable=0;rotatable=0;perimeter=centerPerimeter;snapToPoint=1;" parent="1" vertex="1">
          <mxGeometry x="620" y="275" width="20" height="20" as="geometry" />
        </mxCell>
        <mxCell id="6ML0jNFKMh7dgCEZMotU-94" value="" style="shape=waypoint;sketch=0;size=6;pointerEvents=1;points=[];fillColor=none;resizable=0;rotatable=0;perimeter=centerPerimeter;snapToPoint=1;" parent="1" vertex="1">
          <mxGeometry x="420" y="230" width="20" height="20" as="geometry" />
        </mxCell>
      </root>
    </mxGraphModel>
  </diagram>
</mxfile>
